<?xml version="1.0" standalone="no"?><!DOCTYPE svg PUBLIC "-//W3C//DTD SVG 1.1//EN" "http://www.w3.org/Graphics/SVG/1.1/DTD/svg11.dtd"><svg t="1648904970973" class="icon" viewBox="0 0 1024 1024" version="1.1" xmlns="http://www.w3.org/2000/svg" p-id="21486" xmlns:xlink="http://www.w3.org/1999/xlink" width="200" height="200"><defs><style type="text/css"></style></defs><path d="M704.420571 203.428571H606.72v-2.139428l99.84-131.565714c9.014857-11.593143 12.434286-18.870857 12.434286-26.587429 0-13.275429-10.276571-21.412571-24.429715-21.412571h-137.563428c-12.854857 0-22.710857 8.576-22.710857 21.851428 0 14.134857 9.856 22.290286 22.710857 22.290286H649.142857v2.139428l-101.138286 131.145143c-8.996571 11.995429-12.434286 17.993143-12.434285 26.989715 0 12.434286 9.874286 21.851429 24.009143 21.851428h144.841142c12.873143 0 22.308571-8.557714 22.308572-22.710857 0-12.854857-9.435429-21.851429-22.308572-21.851429z m200.594286 164.150858h-69.010286v-1.718858l71.131429-93.001142c8.137143-11.154286 11.574857-17.572571 11.574857-25.289143 0-12.434286-9.856-20.571429-23.131428-20.571429h-105.014858c-11.995429 0-20.992 8.576-20.992 21.010286 0 13.275429 8.996571 21.412571 20.992 21.412571h62.153143v1.718857l-70.710857 92.580572c-8.155429 10.276571-11.154286 17.133714-11.154286 25.709714 0 11.574857 8.996571 20.571429 22.308572 20.571429h111.835428c12.434286 0 21.010286-8.137143 21.010286-21.430857 0-12.434286-8.576-20.992-21.010286-20.992z m-432.457143 634.697142c156.873143 0 283.721143-78.848 341.577143-212.992 7.716571-18.432 5.156571-32.566857-2.998857-41.142857-7.716571-7.277714-20.571429-8.996571-35.986286-2.998857-32.146286 12.854857-71.570286 20.150857-120.868571 20.150857-191.561143 0-314.989714-119.588571-314.989714-307.730285 0-51.84 9.856-103.277714 23.131428-130.285715 8.594286-17.133714 7.716571-31.707429 0.438857-40.704-8.155429-9.435429-22.710857-12.434286-42.861714-4.297143-131.565714 53.577143-221.988571 190.72-221.988571 351.012572 0 208.713143 153.417143 369.005714 374.564571 369.005714z m0.877715-65.133714c-183.003429 0-310.308571-133.302857-310.308572-308.992 0-108.013714 50.157714-203.154286 129.865143-264.009143-10.276571 27.849143-16.274286 70.710857-16.274286 111.853715 0 210.870857 145.718857 352.292571 361.289143 352.292571 38.564571 0 73.691429-4.717714 91.702857-11.154286-53.577143 74.148571-149.138286 120.009143-256.274285 120.009143z m242.56-423.003428h-58.697143v-1.718858l60.416-80.128c7.716571-11.154286 11.154286-16.713143 11.154285-24.009142 0-12.434286-9.435429-19.712-21.869714-19.712h-92.562286c-11.574857 0-20.150857 8.137143-20.150857 20.150857 0 12.434286 8.576 20.132571 20.150857 20.132571h51.419429v1.718857l-59.574857 79.725715c-7.716571 10.276571-10.715429 16.274286-10.715429 24.411428 0 11.154286 8.594286 19.291429 21.010286 19.291429h99.419429c11.574857 0 19.712-7.716571 19.712-20.150857 0-11.995429-8.137143-19.712-19.712-19.712z" p-id="21487"></path></svg>